#tb 0: 1/25
#media_type 0: video
#codec_id 0: rawvideo
#dimensions 0: 176x144
#sar 0: 0/1
0,          0,          0,        1,    38016, 0x666c110c
0,          1,          1,        1,    38016, 0xc87421f6
0,          2,          2,        1,    38016, 0x1b74033d
0,          3,          3,        1,    38016, 0x21fe21c7
0,          4,          4,        1,    38016, 0x8f03321e
0,          5,          5,        1,    38016, 0xdbd46290
0,          6,          6,        1,    38016, 0x316a57d4
0,          7,          7,        1,    38016, 0x0a688f29
0,          8,          8,        1,    38016, 0x8bb890d5
0,          9,          9,        1,    38016, 0x4210c0a4
0,         10,         10,        1,    38016, 0x45f6b0e7
0,         11,         11,        1,    38016, 0x5feed346
0,         12,         12,        1,    38016, 0x22aea97e
0,         13,         13,        1,    38016, 0x8d96a049
0,         14,         14,        1,    38016, 0xe623654c
0,         15,         15,        1,    38016, 0xccd17c75
0,         16,         16,        1,    38016, 0x32ca7712
0,         17,         17,        1,    38016, 0x2fe49df2
0,         18,         18,        1,    38016, 0x6ee49068
0,         19,         19,        1,    38016, 0x74a0ba36
0,         20,         20,        1,    38016, 0x5079a13c
0,         21,         21,        1,    38016, 0xfd20a991
0,         22,         22,        1,    38016, 0xfc987386
0,         23,         23,        1,    38016, 0xa1f66a0b
0,         24,         24,        1,    38016, 0xd7112683
0,         25,         25,        1,    38016, 0xb60b3784
0,         26,         26,        1,    38016, 0x9e621ca3
0,         27,         27,        1,    38016, 0xd9264308
0,         28,         28,        1,    38016, 0x00db43fb
0,         29,         29,        1,    38016, 0x665a5b34
0,         30,         30,        1,    38016, 0x582050ce
0,         31,         31,        1,    38016, 0x52b95de5
0,         32,         32,        1,    38016, 0x95d8445e
